<svg xmlns="http://www.w3.org/2000/svg" width="137" height="190" viewBox="0 0 137 190" fill="none">
  <path d="M99.1549 189.715L55.6063 114.049H31.9268V189.715H0.898438V0.550781H66.2213C80.7375 0.550781 92.9855 3.09111 102.965 8.17178C113.127 13.2524 120.657 20.0569 125.556 28.5852C130.637 37.1135 133.177 46.6397 133.177 57.1639C133.177 69.5027 129.548 80.7528 122.29 90.9141C115.213 100.894 104.236 107.698 89.3565 111.327L136.171 189.715H99.1549ZM31.9268 89.281H66.2213C77.8343 89.281 86.544 86.3778 92.3505 80.5713C98.3384 74.7648 101.332 66.9624 101.332 57.1639C101.332 47.3655 98.4291 39.7445 92.6226 34.3009C86.8162 28.6759 78.0157 25.8634 66.2213 25.8634H31.9268V89.281Z" fill="#DC4D55"/>
</svg>