<svg xmlns="http://www.w3.org/2000/svg" width="41" height="41" viewBox="0 0 41 41" fill="none">
  <path d="M15.9142 18.0519C17.4999 20.8378 19.807 23.1448 22.5929 24.7306L24.0868 22.6384C24.327 22.302 24.6822 22.0653 25.0852 21.9732C25.4882 21.881 25.9109 21.9397 26.2735 22.1382C28.6637 23.4444 31.3032 24.23 34.0185 24.4433C34.4423 24.4769 34.8379 24.6689 35.1264 24.9812C35.4148 25.2935 35.575 25.703 35.575 26.1282V33.6687C35.5751 34.0871 35.4199 34.4907 35.1396 34.8013C34.8592 35.1119 34.4736 35.3075 34.0574 35.3501C33.1617 35.4431 32.2593 35.4887 31.3501 35.4887C16.8842 35.4887 5.15607 23.7605 5.15607 9.29467C5.15607 8.38548 5.2017 7.48306 5.29464 6.58739C5.33732 6.17115 5.5329 5.78555 5.84352 5.50521C6.15414 5.22487 6.55771 5.06973 6.97613 5.06982H14.5166C14.9418 5.06977 15.3513 5.22995 15.6636 5.51842C15.9758 5.80689 16.1679 6.20246 16.2015 6.62626C16.4148 9.34164 17.2004 11.9811 18.5066 14.3712C18.7051 14.7338 18.7638 15.1566 18.6716 15.5596C18.5795 15.9626 18.3428 16.3178 18.0064 16.558L15.9142 18.0519ZM11.6522 16.9416L14.8631 14.6484C13.9518 12.6815 13.3275 10.594 13.0092 8.4497H8.55284C8.5427 8.73023 8.53763 9.01245 8.53763 9.29467C8.53594 21.8949 18.7499 32.1088 31.3501 32.1088C31.6323 32.1088 31.9146 32.1038 32.1951 32.0919V27.6356C30.0508 27.3173 27.9633 26.693 25.9964 25.7817L23.7031 28.9926C22.7799 28.6339 21.8831 28.2103 21.0195 27.7251L20.9215 27.6694C17.6068 25.7829 14.8619 23.038 12.9754 19.7233L12.9196 19.6253C12.4345 18.7617 12.0109 17.8649 11.6522 16.9416Z" fill="white"/>
</svg>