<svg xmlns="http://www.w3.org/2000/svg" width="41" height="41" viewBox="0 0 41 41" fill="none">
  <g clip-path="url(#clip0_1935_1466)">
    <path d="M20.538 40.0989L9.78327 29.3441C7.65621 27.217 6.20767 24.5069 5.62082 21.5566C5.03398 18.6063 5.33519 15.5482 6.48636 12.769C7.63753 9.98985 9.58696 7.61447 12.0881 5.94325C14.5893 4.27202 17.5299 3.38 20.538 3.38C23.5462 3.38 26.4868 4.27202 28.9879 5.94325C31.4891 7.61447 33.4385 9.98985 34.5897 12.769C35.7409 15.5482 36.0421 18.6063 35.4553 21.5566C34.8684 24.5069 33.4199 27.217 31.2928 29.3441L20.538 40.0989ZM28.9032 26.9545C30.5575 25.3001 31.684 23.1922 32.1404 20.8976C32.5967 18.6029 32.3624 16.2244 31.467 14.0629C30.5716 11.9014 29.0554 10.054 27.1101 8.75416C25.1647 7.45437 22.8777 6.7606 20.538 6.7606C18.1984 6.7606 15.9113 7.45437 13.966 8.75416C12.0207 10.054 10.5044 11.9014 9.60906 14.0629C8.71367 16.2244 8.47933 18.6029 8.93568 20.8976C9.39203 23.1922 10.5186 25.3001 12.1728 26.9545L20.538 35.3197L28.9032 26.9545ZM20.538 21.9692C19.6416 21.9692 18.782 21.6131 18.1481 20.9793C17.5143 20.3454 17.1582 19.4857 17.1582 18.5893C17.1582 17.6929 17.5143 16.8332 18.1481 16.1994C18.782 15.5655 19.6416 15.2094 20.538 15.2094C21.4344 15.2094 22.2941 15.5655 22.928 16.1994C23.5618 16.8332 23.9179 17.6929 23.9179 18.5893C23.9179 19.4857 23.5618 20.3454 22.928 20.9793C22.2941 21.6131 21.4344 21.9692 20.538 21.9692Z" fill="white"/>
  </g>
  <defs>
    <clipPath id="clip0_1935_1466">
      <rect width="40.5585" height="40.5585" fill="white" transform="translate(0.258789)"/>
    </clipPath>
  </defs>
</svg>