<svg xmlns="http://www.w3.org/2000/svg" width="41" height="41" viewBox="0 0 41 41" fill="none">
  <path d="M3.96302 11.5829L19.5899 2.21385C19.8525 2.05627 20.1531 1.97302 20.4594 1.97302C20.7657 1.97302 21.0662 2.05627 21.3288 2.21385L36.9405 11.5846C37.0658 11.6596 37.1694 11.7659 37.2414 11.8929C37.3134 12.02 37.3512 12.1635 37.3511 12.3095V33.7988C37.3511 34.247 37.1731 34.6769 36.8562 34.9938C36.5392 35.3107 36.1094 35.4888 35.6612 35.4888H5.24231C4.79411 35.4888 4.36426 35.3107 4.04734 34.9938C3.73041 34.6769 3.55237 34.247 3.55237 33.7988V12.3079C3.55234 12.1618 3.59015 12.0183 3.66212 11.8912C3.73409 11.7642 3.83776 11.6579 3.96302 11.5829ZM31.1761 13.9319L20.5548 23.1235L9.71557 13.9218L7.52879 16.4972L20.5751 27.5748L33.3865 16.4888L31.1761 13.9319Z" fill="white"/>
</svg>