<svg xmlns="http://www.w3.org/2000/svg" width="41" height="41" viewBox="0 0 41 41" fill="none">
  <path d="M35.8338 22.3782V33.7988H37.5238V37.1787H3.72498V33.7988H5.41492V22.3782C4.37455 21.6838 3.5217 20.7432 2.9321 19.6401C2.34249 18.5369 2.03435 17.3053 2.03504 16.0544C2.03504 14.6568 2.41359 13.31 3.10477 12.1625L7.68789 4.22485C7.83621 3.96796 8.04954 3.75463 8.30643 3.6063C8.56333 3.45798 8.85474 3.37989 9.15138 3.37988H32.0991C32.3957 3.37989 32.6871 3.45798 32.944 3.6063C33.2009 3.75463 33.4142 3.96796 33.5625 4.22485L38.1288 12.1371C39.1369 13.8117 39.461 15.8103 39.0336 17.7176C38.6062 19.6248 37.4602 21.294 35.8338 22.3782ZM32.4539 23.6118C31.292 23.7422 30.1156 23.6026 29.0165 23.204C27.9173 22.8053 26.9249 22.1584 26.1167 21.3135C25.4073 22.0555 24.5548 22.6461 23.6109 23.0495C22.6669 23.4529 21.6509 23.6609 20.6244 23.6608C19.598 23.6613 18.5823 23.4539 17.6383 23.0511C16.6943 22.6482 15.8418 22.0583 15.1321 21.3169C14.3236 22.1615 13.3312 22.8081 12.2321 23.2064C11.1329 23.6048 9.95661 23.7441 8.7948 23.6135V33.7988H32.4539V23.6135V23.6118ZM10.1282 6.75976L6.01654 13.8795C5.617 14.8666 5.60501 15.9683 5.98296 16.9639C6.36092 17.9595 7.10094 18.7757 8.05491 19.2491C9.00889 19.7224 10.1064 19.8181 11.1279 19.5168C12.1494 19.2155 13.0194 18.5396 13.5638 17.6244C14.1299 16.2099 16.1325 16.2099 16.7003 17.6244C17.0135 18.4092 17.5548 19.0821 18.2543 19.5562C18.9538 20.0302 19.7794 20.2836 20.6244 20.2836C21.4694 20.2836 22.295 20.0302 22.9945 19.5562C23.694 19.0821 24.2353 18.4092 24.5484 17.6244C25.1145 16.2099 27.1171 16.2099 27.6849 17.6244C27.9042 18.1642 28.2329 18.6529 28.6501 19.0596C29.0674 19.4663 29.5643 19.7823 30.1095 19.9878C30.6548 20.1932 31.2367 20.2837 31.8186 20.2534C32.4005 20.2231 32.9699 20.0728 33.4909 19.8119C34.0119 19.551 34.4733 19.1851 34.8461 18.7373C35.2189 18.2894 35.4951 17.7693 35.6572 17.2096C35.8193 16.6499 35.8639 16.0628 35.7881 15.485C35.7124 14.9073 35.5179 14.3514 35.217 13.8524L31.1189 6.75976H10.1298H10.1282Z" fill="white"/>
</svg>