<svg xmlns="http://www.w3.org/2000/svg" width="41" height="41" viewBox="0 0 41 41" fill="none">
  <path d="M20.0751 2C24.8701 2.00238 29.3707 3.85995 32.7548 7.23179C36.1391 10.6035 38.0018 15.0858 38 19.8517C37.9961 29.5894 30.1143 37.53 20.3712 37.6879L20.0755 37.6903H20.0681C17.1142 37.6893 14.211 36.9634 11.6234 35.5847L11.5025 35.5195L2 38L4.54292 28.7555C2.97453 26.0508 2.1492 22.9817 2.15047 19.8374C2.15441 10.0021 10.1955 2 20.0751 2ZM20.0813 5.01314C11.8636 5.01314 5.18009 11.664 5.17686 19.839C5.17573 22.5977 5.93961 25.286 7.38734 27.6219L7.45456 27.7296L7.80894 28.2906L6.30383 33.7617L11.9425 32.2899L12.4865 32.6109C14.7375 33.9403 17.3128 34.6541 19.9421 34.6771L20.0693 34.6777H20.0755C28.2869 34.6777 34.9702 28.0264 34.9736 19.8509C34.975 15.8892 33.427 12.1638 30.6141 9.36128C27.8012 6.5589 24.0605 5.01454 20.0813 5.01314ZM13.7292 11.5997C14.0277 11.5997 14.3269 11.6025 14.5876 11.6157C14.8627 11.6292 15.2318 11.5118 15.5952 12.3807C15.7347 12.7138 15.9468 13.2284 16.1639 13.7541L16.2104 13.8667C16.5599 14.7127 16.9092 15.5562 16.9764 15.6901C17.0882 15.9131 17.1627 16.1737 17.0135 16.4709C16.8645 16.7686 16.7895 16.9543 16.5658 17.2149C16.3418 17.4749 16.0955 17.7961 15.894 17.9957C15.883 18.0065 15.8721 18.0174 15.8611 18.0283L15.8285 18.0615C15.6288 18.2671 15.4617 18.5027 15.6977 18.905C15.9589 19.3514 16.8576 20.8114 18.189 21.9931C19.8997 23.5116 21.343 23.9824 21.7909 24.2056C22.2386 24.4287 22.5 24.3915 22.7612 24.0936C23.0226 23.7964 23.8807 22.7924 24.1794 22.3461C24.4779 21.8999 24.7765 21.9745 25.1871 22.1231C25.3821 22.1938 25.9822 22.4745 26.6063 22.7738L26.8003 22.867C27.4251 23.1679 28.0345 23.4671 28.2474 23.5732C28.6953 23.7964 28.9939 23.9079 29.1057 24.0936C29.2177 24.2798 29.2177 25.172 28.8445 26.2132C28.4714 27.2544 26.6819 28.2047 25.8215 28.3329C25.0498 28.4474 24.0735 28.4952 23.0005 28.1563C22.3503 27.9505 21.5158 27.6764 20.4472 27.2172C15.9545 25.2867 13.0201 20.7842 12.7963 20.487L12.7812 20.4668C12.5082 20.1038 10.9674 18.0254 10.9674 15.8759C10.9674 13.6821 12.1246 12.6038 12.5349 12.1575C12.9455 11.7116 13.4307 11.5997 13.7292 11.5997Z" fill="white"/>
</svg>